<?xml version="1.0" encoding="utf-8"?>
<!-- Generator: Adobe Illustrator 19.0.0, SVG Export Plug-In . SVG Version: 6.00 Build 0)  -->
<!DOCTYPE svg PUBLIC "-//W3C//DTD SVG 1.1//EN" "http://www.w3.org/Graphics/SVG/1.1/DTD/svg11.dtd">
<svg version="1.1" id="Layer_1" xmlns="http://www.w3.org/2000/svg" xmlns:xlink="http://www.w3.org/1999/xlink" x="0px" y="0px"
	 viewBox="0 0 128 14.8" style="enable-background:new 0 0 128 14.8;" xml:space="preserve">
<style type="text/css">
	.st0{fill:#ffffff;}
</style>
<g id="XMLID_37_">
	<path id="XMLID_39_" class="st0" d="M6.9,6.1c-2.5-0.6-3.1-1-3.1-1.9v0c0-0.7,0.6-1.3,1.9-1.3c1.2,0,2.5,0.5,3.8,1.4L11,1.9
		C9.6,0.7,7.8,0,5.7,0c-3,0-5.1,1.7-5.1,4.4v0c0,2.9,1.9,3.7,4.8,4.4c2.4,0.6,2.9,1,2.9,1.8v0c0,0.8-0.8,1.4-2.1,1.4
		c-1.7,0-3-0.7-4.3-1.8L0,12.6C1.7,14.2,4,15,6.2,15c3.1,0,5.3-1.6,5.3-4.5v0C11.5,7.9,9.8,6.8,6.9,6.1 M28.1,2.7l-1.7-2.5l-5.9,6.3
		V0.2h-3.2v14.5h3.2v-4.4l1.7-1.7l4.5,6.2h3.8l-6.2-8.4L28.1,2.7z M39.4,6.1L36,0.2h-3.7L37.8,9v5.7H41V9l5.6-8.7H43L39.4,6.1z
		 M60.2,6h-5.9V0.2h-3.2v14.5h3.2V8.9h5.9v5.8h3.2V0.2h-3.2V6z M75.5,0c-4.5,0-7.7,3.4-7.7,7.5v0c0,4.1,3.2,7.5,7.7,7.5
		c4.5,0,7.7-3.4,7.7-7.5v0C83.2,3.3,80,0,75.5,0 M79.9,7.5c0,2.5-1.8,4.5-4.4,4.5c-2.6,0-4.4-2.1-4.4-4.6v0c0-2.5,1.8-4.5,4.4-4.5
		C78.1,2.9,79.9,5,79.9,7.5L79.9,7.5z M94.8,0c-4.5,0-7.7,3.4-7.7,7.5v0c0,4.1,3.2,7.5,7.7,7.5c4.5,0,7.7-3.4,7.7-7.5v0
		C102.5,3.3,99.3,0,94.8,0 M99.2,7.5c0,2.5-1.8,4.5-4.4,4.5c-2.6,0-4.4-2.1-4.4-4.6v0c0-2.5,1.8-4.5,4.4-4.5
		C97.4,2.9,99.2,5,99.2,7.5L99.2,7.5z M119.8,0.2h-3.9L110,6.6V0.2h-3.2v14.5h3.2v-4.4l1.7-1.7l4.5,6.2h3.8l-6.2-8.4L119.8,0.2z
		 M125.3,0c-1.4,0-2.7,1.2-2.7,2.6c0,1.4,1.3,2.6,2.7,2.6c1.4,0,2.7-1.2,2.7-2.6C128,1.2,126.7,0,125.3,0 M125.3,4.1
		c-0.8,0-1.4-0.7-1.4-1.5c0-0.8,0.6-1.5,1.4-1.5c0.8,0,1.4,0.7,1.4,1.5C126.7,3.4,126.1,4.1,125.3,4.1"/>
</g>
</svg>
